<svg xmlns="http://www.w3.org/2000/svg" viewBox="0 0 192.98 194.18"><path d="M181.4 108.4c0-24.03-29.29-44.11-53.42-62.12-8.66-6.46-16.74-13.36-20.43-16.49-3.69-3.13-10.37-9.8-11.07-9.8s-7.37 6.68-11.06 9.8c-3.69 3.13-11.77 10.02-20.43 16.49-24.14 18.01-53.42 38.09-53.42 62.12 0 40.83 84.92 73.92 84.92 73.92s84.91-33.1 84.91-73.92" fill="#5e3c33"/><path d="M96.49 191.68s93.99-36.23 93.99-83.32c0-44-81.48-74.5-92.74-104.29-.79-2.09-1.67-2.1-2.44-.01C84.39 33.73 2.5 64.37 2.5 108.36c0 47.09 93.99 83.32 93.99 83.32z" stroke="#e5005b" stroke-linecap="round" stroke-linejoin="round" stroke-width="4.99" fill="none"/><path d="M127.71 141.65v.7h-3.47v1.98h3.23v.7h-3.23v2.15h3.49v.7h-4.32v-6.22h4.29zm-11.18.85c-.27-.2-.63-.3-1.06-.3-.17 0-.35.02-.51.05-.17.03-.32.09-.45.17-.13.08-.24.19-.31.33-.08.14-.12.31-.12.51 0 .19.06.35.17.47.11.12.26.22.45.29.19.08.4.14.64.19.24.05.48.1.73.16s.49.13.73.2c.24.08.45.18.64.32.19.13.34.3.45.51s.17.46.17.77c0 .33-.07.61-.22.85s-.34.43-.57.58c-.23.15-.49.26-.78.32-.29.07-.57.1-.86.1-.35 0-.68-.04-.99-.13-.31-.09-.58-.22-.82-.4-.24-.18-.42-.4-.56-.68-.14-.27-.21-.6-.21-.98h.78c0 .26.05.49.15.68.1.19.24.34.4.46.17.12.36.21.58.27.22.06.45.09.68.09.19 0 .37-.02.56-.05.19-.03.36-.09.51-.18.15-.08.27-.2.37-.34.09-.15.14-.33.14-.56 0-.21-.06-.39-.17-.52-.11-.13-.26-.24-.45-.33-.19-.08-.4-.15-.64-.2-.24-.05-.48-.11-.73-.16-.25-.06-.49-.12-.73-.19s-.45-.17-.64-.29a1.32 1.32 0 01-.45-.46c-.11-.19-.17-.43-.17-.71 0-.31.06-.58.19-.81.13-.23.3-.42.51-.57.21-.15.45-.26.72-.33.27-.07.55-.11.83-.11.32 0 .62.04.89.11.27.08.51.19.72.36.21.16.37.37.49.61.12.25.18.54.2.88h-.78c-.05-.45-.21-.77-.48-.97m-12.88-.85l3.27 5.04h.02v-5.04h.78v6.22h-.91l-3.25-4.99h-.02v4.99h-.78v-6.22h.88zm-6.25 0v.7h-3.47v1.98h3.23v.7h-3.23v2.15h3.49v.7H93.1v-6.22h4.29zm-11.18.88c-.32-.22-.69-.33-1.13-.33-.37 0-.69.07-.95.21s-.48.33-.65.56c-.17.23-.3.5-.38.81-.08.3-.12.62-.12.94 0 .35.04.69.12 1.01.08.32.21.59.38.83s.39.42.66.56c.27.14.59.21.96.21.27 0 .52-.04.73-.13a1.677 1.677 0 00.91-.95c.09-.22.14-.46.16-.71h.83c-.08.78-.35 1.39-.81 1.83-.46.44-1.09.65-1.88.65-.48 0-.9-.08-1.26-.25-.36-.17-.66-.39-.9-.68-.24-.29-.42-.63-.54-1.03s-.18-.82-.18-1.27.06-.88.19-1.28.32-.74.56-1.04c.25-.3.56-.53.92-.7a3 3 0 011.27-.26c.33 0 .63.04.92.13.29.09.55.22.78.38.23.17.42.38.57.63.15.25.25.55.3.88h-.83c-.09-.44-.3-.77-.61-.99m-13.53-.88l3.27 5.04H76v-5.04h.78v6.22h-.9l-3.25-4.99h-.02v4.99h-.78v-6.22h.88zm-6.62 6.22h-.83v-6.22h.83v6.22zm82.39-35c0 .45-.09 3.52-5.1 3.52-1.63 0-2.12-.23-2.12-.32 0-2.53 1.63-5.47 4.61-5.47.54 0 2.62.09 2.62 2.26m-.54 15.17c7.99 0 11.47-4.61 11.47-6.01 0-.09-.05-.18-.18-.36-.54-.77-1.81-2.57-1.81-2.57-1.85 3.43-5.56 4.97-9.12 4.97-6.1 0-6.59-3.79-6.59-3.97 0-.04.04-.09.09-.09.32.09 1.94.23 2.08.23 9.3 0 9.49-6.59 9.49-7.27 0-6.32-6.19-6.41-6.86-6.41-8.9 0-10.3 7.95-10.3 10.66 0 2.85.32 10.84 11.74 10.84m-27.68-20.68v19.87h4.83v-7.36c0-.9.13-3.75 1.58-5.78.81-1.13 2.03-2.21 3.75-2.21v3.16h4.07v-8.04c-.27-.18-1.13-.23-1.54-.23-5.28 0-7.77 3.88-7.86 4.02-.09.14-.14.18-.18.18-.09 0-.09-.18-.09-.18v-3.43h-4.56zm-10.34 10.93c0 2.3-1.72 4.92-4.79 4.92-3.75 0-3.79-3.93-3.79-5.1 0-5.78 4.07-7.45 6.32-7.45 1.63 0 2.26.27 2.26.27v7.36zm6.96 4.65c-1.85 0-2.17-1.72-2.17-2.67V94.87h-6.68v4.07h1.9v7.68c-.45-.05-.9-.05-1.31-.05-9.3 0-12.33 6.46-12.33 12.24 0 2.53.81 9.17 7.9 9.17 2.71 0 5.1-1.13 6.37-3.34 0 0 .05-.09.14-.09.04 0 .09.05.13.14 0 0 1.04 3.12 4.56 3.12 4.83 0 7.09-3.97 7.09-5.06 0-.18-.14-.36-.14-.36l-1.9-2.62c-.81 2.57-2.44 3.21-3.57 3.21m-29.58-4.65c0 2.3-1.72 4.97-4.79 4.97-3.75 0-3.79-3.98-3.79-5.15 0-5.78 4.11-7.45 6.32-7.45 1.62 0 2.26.27 2.26.27v7.36zm4.79-10.88s-3.3-.86-6.1-.86c-9.3 0-12.33 6.46-12.33 12.24 0 1.99.81 9.3 7.72 9.3 2.71 0 5.24-1.26 6.55-3.48 0 0 .09-.14.14-.14s.05.05.09.14c.36 1.63 1.76 3.16 4.11 3.16 4.56 0 6.23-3.84 6.23-4.74 0-.18-.14-.45-.14-.45l-1.85-2.53c-.54 2.35-1.76 2.85-2.62 2.85-1.81 0-1.81-1.76-1.81-2.17v-13.32zm-34.91 19.78l7.72-25.29c.04-.14.09-.18.14-.18s.05.18.05.18-.18 24.93-.18 25.34h5.56V99.32h2.35v-4.43H62.22l-6.86 22.58c-.05.18-.14.23-.18.23-.09 0-.14-.23-.14-.23l-6.86-22.58H37.57v4.43h2.35v27.96h5.56c0-.41-.18-25.34-.18-25.34s0-.18.04-.18.09.05.14.18l7.72 25.29h4.02zm79.65-44.83c0 1.36-1.01 2.92-2.82 2.92-2.21 0-2.23-2.34-2.23-3.03 0-3.4 2.42-4.39 3.72-4.39.96 0 1.33.16 1.33.16v4.33zm2.82-6.4s-1.97-.5-3.59-.5c-5.47 0-7.26 3.8-7.26 7.2 0 1.3.4 5.48 4.54 5.48 1.59 0 3.11-.74 3.85-2.05.03-.03.05-.08.08-.08s.03.03.05.11c.35 1.09 1.38 1.83 2.82 1.83 2.84 0 4.04-2.31 4.04-2.95 0-.11-.08-.24-.08-.24l-1.09-1.52c-.48 1.52-1.41 1.89-2.07 1.89-1.09 0-1.3-1.04-1.3-1.6V76zm-16.08 6.4c0 1.36-1.01 2.9-2.82 2.9-2.21 0-2.23-2.31-2.23-3 0-3.4 2.42-4.39 3.72-4.39.96 0 1.33.16 1.33.16v4.33zm2.82 1.38V68.61h-3.93V71h1.12v4.52c-.26 0-.53-.03-.77-.03-5.47 0-7.25 3.8-7.25 7.2 0 1.36.5 5.4 4.65 5.4 1.6 0 3-.66 3.75-1.97.03-.03.05-.05.08-.05s.05 0 .08.08c0 0 .37 1.83 2.36 1.83 2.68 0 3.67-2.34 3.67-2.87 0-.11-.05-.24-.05-.24l-1.12-1.49c-.32 1.36-1.01 1.73-1.51 1.73-1.04 0-1.06-1.09-1.06-1.33m-16.13-1.38c0 1.36-1.01 2.92-2.82 2.92-2.21 0-2.23-2.34-2.23-3.03 0-3.4 2.42-4.39 3.72-4.39.96 0 1.33.16 1.33.16v4.33zm2.82-6.4s-1.94-.5-3.59-.5c-5.47 0-7.25 3.8-7.25 7.2 0 1.17.48 5.48 4.54 5.48 1.6 0 3.08-.74 3.85-2.05 0 0 .05-.08.08-.08s.03.03.05.08c.21.96 1.04 1.86 2.42 1.86 2.68 0 3.67-2.26 3.67-2.79 0-.11-.08-.26-.08-.26l-1.09-1.49c-.32 1.38-1.04 1.67-1.54 1.67-1.06 0-1.06-1.04-1.06-1.28V76zm-19.98-.03v11.69h2.84v-4.33c0-.53.08-2.21.93-3.4.48-.67 1.19-1.3 2.21-1.3v1.86h2.39v-4.73c-.16-.11-.66-.13-.9-.13-3.11 0-4.57 2.29-4.62 2.37-.05.08-.08.11-.11.11-.05 0-.05-.11-.05-.11v-2.02h-2.68zm-5.16 6.38c0 1.33-.96 2.95-2.74 2.95-2.2 0-2.26-2.36-2.26-3.03 0-3.38 2.28-4.36 3.67-4.36.96 0 1.33.16 1.33.16v4.28zm-6.99 12.68s.8.27 2.31.27c7.44 0 7.44-6.17 7.44-7.81V76.04c0-.05-1.91-.5-3.53-.5-5.42 0-7.18 3.61-7.18 7.23 0 .66.24 5.26 4.39 5.26 1.28 0 2.47-.32 3.38-1.3 0 0 .08-.11.13-.11.03 0 .05.03.05.13v1.38c0 1.54-.27 4.76-3.96 4.76-.21 0-.58-.03-.58-.03v-1.99h-2.44v4.17zm-6.24-12.62c0 1.36-1.01 2.92-2.82 2.92-2.21 0-2.23-2.34-2.23-3.03 0-3.4 2.42-4.39 3.72-4.39.96 0 1.33.16 1.33.16v4.33zm2.82-6.4s-1.94-.5-3.59-.5c-5.47 0-7.25 3.8-7.25 7.2 0 1.17.48 5.48 4.54 5.48 1.6 0 3.08-.74 3.85-2.05 0 0 .05-.08.08-.08s.03.03.05.08c.21.96 1.04 1.86 2.42 1.86 2.68 0 3.67-2.26 3.67-2.79 0-.11-.08-.26-.08-.26l-1.09-1.49c-.32 1.38-1.04 1.67-1.54 1.67-1.06 0-1.06-1.04-1.06-1.28v-7.84zm-19.11 9.73c-2.39 0-2.92-.72-2.92-.72V82.2h-2.79v5.1s1.65 1.06 5.71 1.06c7.44 0 7.63-5.34 7.63-6.25 0-8-9.51-4.38-9.51-8.8 0-2.34 2.66-2.68 3.85-2.68s1.83.27 1.83.27v2.05h2.74v-4.52s-1.43-.45-4.36-.45c-6.56 0-7.52 3.83-7.52 5.5 0 7.6 9.65 3.38 9.65 8.74 0 .64-.11 3.51-4.3 3.51" fill="#fff"/><path fill="none" d="M0 0h192.98v194.18H0z"/></svg>